<?xml version="1.0" encoding="utf-8" ?>
<svg xmlns="http://www.w3.org/2000/svg" width="24" height="24">
  <g>
    <path
      fill="#ffffff"
      d="M.24 11.88c0-4.43 2.74-7.82 7.05-7.82 1.9-.09 3.7.88 4.65 2.52V4.46h4.68V19.3h-4.68v-2.09c-.8 1.48-2.65 2.49-4.71 2.49-4.43 0-6.99-3.35-6.99-7.82m11.89 0c0-2.13-1.2-3.88-3.54-3.88-2.19 0-3.54 1.63-3.54 3.88s1.35 3.91 3.54 3.91c2.34 0 3.54-1.75 3.54-3.91"
    />
    <path
      fill="#ffffff"
      d="M17.91 16.81a2.917 2.917 0 012.96-2.88c1.58.02 2.86 1.3 2.89 2.88a2.947 2.947 0 01-2.97 2.89 2.929 2.929 0 01-2.88-2.89"
    />
  </g>
</svg>
